<?xml version="1.0" encoding="UTF-8"?>
<svg id="uuid-46415797-234d-46d7-b7f7-b3041e85ecaa" data-name="Layer 1" xmlns="http://www.w3.org/2000/svg" xmlns:xlink="http://www.w3.org/1999/xlink" viewBox="0 0 254.52 30.81">
  <defs>
    <style>
      .uuid-937cd8b3-2a8c-4916-a7b0-01d692682383 {
        fill: url(#uuid-f4057720-a63b-4e56-99be-21fc5bda5419);
      }

      .uuid-937cd8b3-2a8c-4916-a7b0-01d692682383, .uuid-0c0f00e0-aeeb-4f27-8190-92f59a7db444, .uuid-3e27f688-b695-4e6a-ba2d-f407ba760551, .uuid-100eff80-72d6-4675-bd6d-33d4218bd851, .uuid-9e7a2aec-04e1-4929-b9b3-68f338d94f43, .uuid-9e749a18-77df-4d5f-a732-495a0d3ee7d2, .uuid-fb120a31-1f51-457c-a6ac-5c3e9cbe2b2d, .uuid-f58ee375-8486-4ebf-9f3d-088a9f0e178c, .uuid-8b389f8e-05fd-4d68-abe6-069cff0d8f6f, .uuid-2c2e8fa4-da1c-4c7d-8d3a-a03d307f44ea, .uuid-bcce1fd1-5563-4a59-8162-a00c704e5072, .uuid-128dd25b-7a69-4350-b2b2-52214482cdf5, .uuid-4c13d15c-aa91-4d62-8b1f-d321855a7d71, .uuid-a2e470af-533b-4850-89f1-0218ff399f67, .uuid-c9f288f2-05a9-450b-a42b-35539b11530c, .uuid-218fe0e1-1a66-42f1-a094-3b08320075d0, .uuid-05da7e28-052b-4ca2-a026-c38516bc13d7, .uuid-1a87b375-6553-4cc5-86b0-e2e9214901ef, .uuid-4ba9ffcc-ab72-454a-a7e3-180e37295544, .uuid-fe936e82-5abb-4463-b8e6-c7611cd7f1a9, .uuid-368c1057-2aca-4df9-bc1b-02cfff9a7dd4, .uuid-ce544c5d-cfe3-46b0-adfd-9fd3b56ddab4, .uuid-4b81e319-2a6c-4a08-8258-14af7cb3d1ce, .uuid-3bd0ab0e-b5a5-4f47-a106-8f2ea3bb61c5, .uuid-51477702-8270-4373-b439-4c6aac7c34d5, .uuid-49434240-8cba-46ca-8521-fd08dfb2fcad, .uuid-e8be2231-ba05-4208-a2d9-f1823aa70311, .uuid-5434e2ec-0d60-4e66-8293-3dce61520ba7, .uuid-07fc7921-b3d0-4450-80c4-30a36ee73d50, .uuid-935135e9-fb47-4a01-adaf-55842b37ecfc, .uuid-dfe28571-eece-4151-827e-465763bed828, .uuid-7c889620-b178-49f5-a2a7-c2dc4b8c9e16, .uuid-d05842c0-b9e3-4beb-a612-6be3c7c97df7, .uuid-f9e7d2c6-1249-426b-9d74-5f852e346eb8, .uuid-59f486fe-74a1-47e7-b68d-227c4aa61e53, .uuid-4da0e7c1-804f-4d95-949f-3857d096122d, .uuid-58151459-f407-48ac-8488-2744bb4e8074, .uuid-bc6f652f-34a0-4640-8ec1-302dc515f055, .uuid-064b8303-4745-436a-939c-8a68bb1518af, .uuid-7f73b9cf-541f-4630-a858-4c5fc472f35d, .uuid-9a9f7af3-e09b-4beb-b1aa-c703ea960dbf, .uuid-b534c5a1-ae1a-484c-88a8-baa70d192492 {
        stroke-width: 0px;
      }

      .uuid-0c0f00e0-aeeb-4f27-8190-92f59a7db444 {
        fill: url(#uuid-7aa16481-b09c-4571-b0ad-f7ca7a78ae75);
      }

      .uuid-3e27f688-b695-4e6a-ba2d-f407ba760551 {
        fill: url(#uuid-b01261a1-90d1-46f7-a290-623375eb5cf7);
      }

      .uuid-100eff80-72d6-4675-bd6d-33d4218bd851 {
        fill: url(#uuid-725261ad-edeb-46e0-ae60-89b636ac9368);
      }

      .uuid-9e7a2aec-04e1-4929-b9b3-68f338d94f43 {
        fill: url(#uuid-3d31cc83-ceb3-4d13-97e6-cd49c0ee776e);
      }

      .uuid-9e749a18-77df-4d5f-a732-495a0d3ee7d2 {
        fill: url(#uuid-94dd78d4-5b58-4615-a236-0c3517a2c6f8);
      }

      .uuid-fb120a31-1f51-457c-a6ac-5c3e9cbe2b2d {
        fill: url(#uuid-63a61715-8149-4e79-998d-dc17c89785cd);
      }

      .uuid-f58ee375-8486-4ebf-9f3d-088a9f0e178c {
        fill: url(#uuid-1ef57ceb-4188-422c-8649-bce086f8c283);
      }

      .uuid-8b389f8e-05fd-4d68-abe6-069cff0d8f6f {
        fill: url(#uuid-358be1e7-822a-45f2-ae02-d1d88b1edf73);
      }

      .uuid-2c2e8fa4-da1c-4c7d-8d3a-a03d307f44ea {
        fill: url(#uuid-d03c448f-68a7-457a-b269-fd18d2c11c73);
      }

      .uuid-bcce1fd1-5563-4a59-8162-a00c704e5072 {
        fill: url(#uuid-a0c71e07-fa03-43ee-831e-75198b14f7aa);
      }

      .uuid-128dd25b-7a69-4350-b2b2-52214482cdf5 {
        fill: url(#uuid-342418e4-dc0c-4983-a73b-d793cdaa20c0);
      }

      .uuid-4c13d15c-aa91-4d62-8b1f-d321855a7d71 {
        fill: url(#uuid-d64fd0e5-bf3d-47f9-8f73-bf812bdd2cd6);
      }

      .uuid-a2e470af-533b-4850-89f1-0218ff399f67 {
        fill: url(#uuid-c86da76c-5d46-47f9-8d98-747354ddd691);
      }

      .uuid-c9f288f2-05a9-450b-a42b-35539b11530c {
        fill: url(#uuid-43adbdd1-a4fb-4553-860c-2634785287e5);
      }

      .uuid-218fe0e1-1a66-42f1-a094-3b08320075d0 {
        fill: url(#uuid-ececa557-e044-4d6d-9156-33fb00f10c70);
      }

      .uuid-05da7e28-052b-4ca2-a026-c38516bc13d7 {
        fill: url(#uuid-422dc2d4-5553-4aeb-ad32-d9dbe5e60970);
      }

      .uuid-1a87b375-6553-4cc5-86b0-e2e9214901ef {
        fill: url(#uuid-e21ab40d-1687-44fd-a893-8ae65d138fff);
      }

      .uuid-4ba9ffcc-ab72-454a-a7e3-180e37295544 {
        fill: url(#uuid-2ec20035-4e22-4573-a803-9c286024b504);
      }

      .uuid-fe936e82-5abb-4463-b8e6-c7611cd7f1a9 {
        fill: url(#uuid-a0ae6ffd-b731-477e-adf0-7cdbdb2effde);
      }

      .uuid-368c1057-2aca-4df9-bc1b-02cfff9a7dd4 {
        fill: url(#uuid-daef7fa3-10ab-4783-b110-22c65d1297a6);
      }

      .uuid-ce544c5d-cfe3-46b0-adfd-9fd3b56ddab4 {
        fill: url(#uuid-3f070706-fbdf-46c2-b378-61cae7dd5db1);
      }

      .uuid-4b81e319-2a6c-4a08-8258-14af7cb3d1ce {
        fill: url(#uuid-b9908f58-d01f-4eb0-accc-c96da77fc148);
      }

      .uuid-3bd0ab0e-b5a5-4f47-a106-8f2ea3bb61c5 {
        fill: url(#uuid-83f4c6d9-9465-472d-a21d-143545fbaf21);
      }

      .uuid-51477702-8270-4373-b439-4c6aac7c34d5 {
        fill: url(#uuid-c96d9a13-6e85-42c5-8980-c609e4545093);
      }

      .uuid-49434240-8cba-46ca-8521-fd08dfb2fcad {
        fill: url(#uuid-48bc5257-4e08-4e32-abed-a823e184b1e8);
      }

      .uuid-e8be2231-ba05-4208-a2d9-f1823aa70311 {
        fill: url(#uuid-6fb40f41-e9ee-4569-89bb-37d96c7f63dd);
      }

      .uuid-5434e2ec-0d60-4e66-8293-3dce61520ba7 {
        fill: url(#uuid-c7573dd2-c5da-4d30-9b58-f58044a37385);
      }

      .uuid-07fc7921-b3d0-4450-80c4-30a36ee73d50 {
        fill: url(#uuid-31ee0f34-2d5c-4fe2-98d0-cf6c0e1250f0);
      }

      .uuid-935135e9-fb47-4a01-adaf-55842b37ecfc {
        fill: url(#uuid-19a574f7-dc42-46fe-aeac-6ab2eebae405);
      }

      .uuid-dfe28571-eece-4151-827e-465763bed828 {
        fill: url(#uuid-f25ec7fe-9ada-4529-ad22-539097521a72);
      }

      .uuid-7c889620-b178-49f5-a2a7-c2dc4b8c9e16 {
        fill: url(#uuid-6a15db2f-d38d-4e4b-8c94-8080e1adc17d);
      }

      .uuid-d05842c0-b9e3-4beb-a612-6be3c7c97df7 {
        fill: url(#uuid-5e60c965-87f5-4b8b-ac8c-5ea86defaf16);
      }

      .uuid-f9e7d2c6-1249-426b-9d74-5f852e346eb8 {
        fill: url(#uuid-dee6663c-909c-4110-a70c-9ad1a3d25a2d);
      }

      .uuid-59f486fe-74a1-47e7-b68d-227c4aa61e53 {
        fill: url(#uuid-8c203b82-6ffa-43b3-871a-c2f4bce5af72);
      }

      .uuid-4da0e7c1-804f-4d95-949f-3857d096122d {
        fill: url(#uuid-aa673da1-d7a9-4cc0-9eb9-2c6066cc42e6);
      }

      .uuid-58151459-f407-48ac-8488-2744bb4e8074 {
        fill: url(#uuid-4a480c2e-bb03-428b-be05-8fec3a6eeab3);
      }

      .uuid-bc6f652f-34a0-4640-8ec1-302dc515f055 {
        fill: url(#uuid-524c51bf-90ca-48a8-8773-9657a0da58b0);
      }

      .uuid-064b8303-4745-436a-939c-8a68bb1518af {
        fill: url(#uuid-8269f403-1bba-4a46-94dc-1762d72e26cd);
      }

      .uuid-7f73b9cf-541f-4630-a858-4c5fc472f35d {
        fill: url(#uuid-1488f4ca-53aa-49d0-85ef-03a170f15d26);
      }

      .uuid-9a9f7af3-e09b-4beb-b1aa-c703ea960dbf {
        fill: url(#uuid-baaa1691-b917-49fc-94be-521731415676);
      }

      .uuid-b534c5a1-ae1a-484c-88a8-baa70d192492 {
        fill: url(#uuid-14f37539-33d2-40d6-b791-300b9faffd41);
      }
    </style>
    <linearGradient id="uuid-dee6663c-909c-4110-a70c-9ad1a3d25a2d" x1="12.28" y1="10.48" x2="4.98" y2="-2.17" gradientUnits="userSpaceOnUse">
      <stop offset="0" stop-color="#dce35b"/>
      <stop offset="1" stop-color="#45b649"/>
    </linearGradient>
    <linearGradient id="uuid-f25ec7fe-9ada-4529-ad22-539097521a72" x1="22.52" y1="11.55" x2="17.32" y2="2.54" xlink:href="#uuid-dee6663c-909c-4110-a70c-9ad1a3d25a2d"/>
    <linearGradient id="uuid-a0c71e07-fa03-43ee-831e-75198b14f7aa" x1="27.36" y1="3.84" x2="25.6" y2=".79" xlink:href="#uuid-dee6663c-909c-4110-a70c-9ad1a3d25a2d"/>
    <linearGradient id="uuid-c96d9a13-6e85-42c5-8980-c609e4545093" x1="33.57" y1="9.28" x2="29.89" y2="2.91" xlink:href="#uuid-dee6663c-909c-4110-a70c-9ad1a3d25a2d"/>
    <linearGradient id="uuid-8c203b82-6ffa-43b3-871a-c2f4bce5af72" x1="43.22" y1="11.55" x2="38.02" y2="2.54" xlink:href="#uuid-dee6663c-909c-4110-a70c-9ad1a3d25a2d"/>
    <linearGradient id="uuid-b01261a1-90d1-46f7-a290-623375eb5cf7" x1="57.14" y1="11.74" x2="50.41" y2=".08" xlink:href="#uuid-dee6663c-909c-4110-a70c-9ad1a3d25a2d"/>
    <linearGradient id="uuid-8269f403-1bba-4a46-94dc-1762d72e26cd" x1="66.76" y1="11.55" x2="61.56" y2="2.54" xlink:href="#uuid-dee6663c-909c-4110-a70c-9ad1a3d25a2d"/>
    <linearGradient id="uuid-1ef57ceb-4188-422c-8649-bce086f8c283" x1="74.2" y1="9.28" x2="70.52" y2="2.91" xlink:href="#uuid-dee6663c-909c-4110-a70c-9ad1a3d25a2d"/>
    <linearGradient id="uuid-a0ae6ffd-b731-477e-adf0-7cdbdb2effde" x1="83.85" y1="11.55" x2="78.65" y2="2.54" xlink:href="#uuid-dee6663c-909c-4110-a70c-9ad1a3d25a2d"/>
    <linearGradient id="uuid-ececa557-e044-4d6d-9156-33fb00f10c70" x1="96.47" y1="10.7" x2="90.62" y2=".57" xlink:href="#uuid-dee6663c-909c-4110-a70c-9ad1a3d25a2d"/>
    <linearGradient id="uuid-524c51bf-90ca-48a8-8773-9657a0da58b0" x1="103.99" y1="10.91" x2="99.16" y2="2.54" xlink:href="#uuid-dee6663c-909c-4110-a70c-9ad1a3d25a2d"/>
    <linearGradient id="uuid-14f37539-33d2-40d6-b791-300b9faffd41" x1="120.51" y1="12.51" x2="114.04" y2="1.31" xlink:href="#uuid-dee6663c-909c-4110-a70c-9ad1a3d25a2d"/>
    <linearGradient id="uuid-31ee0f34-2d5c-4fe2-98d0-cf6c0e1250f0" x1="131.83" y1="11.55" x2="126.25" y2="1.89" xlink:href="#uuid-dee6663c-909c-4110-a70c-9ad1a3d25a2d"/>
    <linearGradient id="uuid-4a480c2e-bb03-428b-be05-8fec3a6eeab3" x1="141.38" y1="11.54" x2="134.67" y2="-.08" xlink:href="#uuid-dee6663c-909c-4110-a70c-9ad1a3d25a2d"/>
    <linearGradient id="uuid-b9908f58-d01f-4eb0-accc-c96da77fc148" x1="150.44" y1="11.55" x2="145.23" y2="2.54" xlink:href="#uuid-dee6663c-909c-4110-a70c-9ad1a3d25a2d"/>
    <linearGradient id="uuid-6fb40f41-e9ee-4569-89bb-37d96c7f63dd" x1="164.64" y1="11.55" x2="159.07" y2="1.89" xlink:href="#uuid-dee6663c-909c-4110-a70c-9ad1a3d25a2d"/>
    <linearGradient id="uuid-7aa16481-b09c-4571-b0ad-f7ca7a78ae75" x1="179.37" y1="11.04" x2="174.16" y2="2.02" xlink:href="#uuid-dee6663c-909c-4110-a70c-9ad1a3d25a2d"/>
    <linearGradient id="uuid-d03c448f-68a7-457a-b269-fd18d2c11c73" x1="184.97" y1="9.9" x2="179.77" y2=".88" xlink:href="#uuid-dee6663c-909c-4110-a70c-9ad1a3d25a2d"/>
    <linearGradient id="uuid-c86da76c-5d46-47f9-8d98-747354ddd691" x1="189.6" y1="9.25" x2="184.77" y2=".88" xlink:href="#uuid-dee6663c-909c-4110-a70c-9ad1a3d25a2d"/>
    <linearGradient id="uuid-342418e4-dc0c-4983-a73b-d793cdaa20c0" x1="195.76" y1="9.25" x2="190.93" y2=".88" xlink:href="#uuid-dee6663c-909c-4110-a70c-9ad1a3d25a2d"/>
    <linearGradient id="uuid-358be1e7-822a-45f2-ae02-d1d88b1edf73" x1="204" y1="11.55" x2="198.79" y2="2.54" xlink:href="#uuid-dee6663c-909c-4110-a70c-9ad1a3d25a2d"/>
    <linearGradient id="uuid-725261ad-edeb-46e0-ae60-89b636ac9368" x1="211.44" y1="9.28" x2="207.76" y2="2.91" xlink:href="#uuid-dee6663c-909c-4110-a70c-9ad1a3d25a2d"/>
    <linearGradient id="uuid-3f070706-fbdf-46c2-b378-61cae7dd5db1" x1="221.09" y1="11.55" x2="215.89" y2="2.54" xlink:href="#uuid-dee6663c-909c-4110-a70c-9ad1a3d25a2d"/>
    <linearGradient id="uuid-48bc5257-4e08-4e32-abed-a823e184b1e8" x1="230.5" y1="11.74" x2="224.92" y2="2.08" xlink:href="#uuid-dee6663c-909c-4110-a70c-9ad1a3d25a2d"/>
    <linearGradient id="uuid-daef7fa3-10ab-4783-b110-22c65d1297a6" x1="240.49" y1="11.37" x2="235.29" y2="2.36" xlink:href="#uuid-dee6663c-909c-4110-a70c-9ad1a3d25a2d"/>
    <linearGradient id="uuid-422dc2d4-5553-4aeb-ad32-d9dbe5e60970" x1="249.55" y1="11.55" x2="244.35" y2="2.54" xlink:href="#uuid-dee6663c-909c-4110-a70c-9ad1a3d25a2d"/>
    <linearGradient id="uuid-c7573dd2-c5da-4d30-9b58-f58044a37385" x1="254.11" y1="11.87" x2="252.34" y2="8.81" xlink:href="#uuid-dee6663c-909c-4110-a70c-9ad1a3d25a2d"/>
    <linearGradient id="uuid-83f4c6d9-9465-472d-a21d-143545fbaf21" x1="6.85" y1="28.54" x2="1.27" y2="18.88" xlink:href="#uuid-dee6663c-909c-4110-a70c-9ad1a3d25a2d"/>
    <linearGradient id="uuid-19a574f7-dc42-46fe-aeac-6ab2eebae405" x1="16.15" y1="27.71" x2="11.32" y2="19.34" xlink:href="#uuid-dee6663c-909c-4110-a70c-9ad1a3d25a2d"/>
    <linearGradient id="uuid-43adbdd1-a4fb-4553-860c-2634785287e5" x1="24.4" y1="27.5" x2="18.55" y2="17.37" xlink:href="#uuid-dee6663c-909c-4110-a70c-9ad1a3d25a2d"/>
    <linearGradient id="uuid-2ec20035-4e22-4573-a803-9c286024b504" x1="32.63" y1="29.35" x2="26.54" y2="18.79" xlink:href="#uuid-dee6663c-909c-4110-a70c-9ad1a3d25a2d"/>
    <linearGradient id="uuid-baaa1691-b917-49fc-94be-521731415676" x1="40.26" y1="27.52" x2="35.06" y2="18.51" xlink:href="#uuid-dee6663c-909c-4110-a70c-9ad1a3d25a2d"/>
    <linearGradient id="uuid-6a15db2f-d38d-4e4b-8c94-8080e1adc17d" x1="49.28" y1="27.71" x2="44.45" y2="19.34" xlink:href="#uuid-dee6663c-909c-4110-a70c-9ad1a3d25a2d"/>
    <linearGradient id="uuid-f4057720-a63b-4e56-99be-21fc5bda5419" x1="57.72" y1="27.5" x2="51.87" y2="17.37" xlink:href="#uuid-dee6663c-909c-4110-a70c-9ad1a3d25a2d"/>
    <linearGradient id="uuid-e21ab40d-1687-44fd-a893-8ae65d138fff" x1="70.13" y1="28.35" x2="64.55" y2="18.69" xlink:href="#uuid-dee6663c-909c-4110-a70c-9ad1a3d25a2d"/>
    <linearGradient id="uuid-1488f4ca-53aa-49d0-85ef-03a170f15d26" x1="83.23" y1="28.72" x2="77.78" y2="19.28" xlink:href="#uuid-dee6663c-909c-4110-a70c-9ad1a3d25a2d"/>
    <linearGradient id="uuid-3d31cc83-ceb3-4d13-97e6-cd49c0ee776e" x1="91.49" y1="26.09" x2="87.81" y2="19.71" xlink:href="#uuid-dee6663c-909c-4110-a70c-9ad1a3d25a2d"/>
    <linearGradient id="uuid-5e60c965-87f5-4b8b-ac8c-5ea86defaf16" x1="100.7" y1="27.71" x2="95.87" y2="19.34" xlink:href="#uuid-dee6663c-909c-4110-a70c-9ad1a3d25a2d"/>
    <linearGradient id="uuid-63a61715-8149-4e79-998d-dc17c89785cd" x1="108.68" y1="26.05" x2="103.85" y2="17.68" xlink:href="#uuid-dee6663c-909c-4110-a70c-9ad1a3d25a2d"/>
    <linearGradient id="uuid-aa673da1-d7a9-4cc0-9eb9-2c6066cc42e6" x1="113.7" y1="26.7" x2="108.49" y2="17.68" xlink:href="#uuid-dee6663c-909c-4110-a70c-9ad1a3d25a2d"/>
    <linearGradient id="uuid-d64fd0e5-bf3d-47f9-8f73-bf812bdd2cd6" x1="118.83" y1="27.5" x2="112.98" y2="17.37" xlink:href="#uuid-dee6663c-909c-4110-a70c-9ad1a3d25a2d"/>
    <linearGradient id="uuid-94dd78d4-5b58-4615-a236-0c3517a2c6f8" x1="121.8" y1="27.78" x2="120.33" y2="25.25" xlink:href="#uuid-dee6663c-909c-4110-a70c-9ad1a3d25a2d"/>
  </defs>
  <path class="uuid-f9e7d2c6-1249-426b-9d74-5f852e346eb8" d="m15.42.7l-3.67,10.09h-1.67l-2.38-6.49-.9,2.47c-.48,1.3-1.02,2.75-1.47,4.02h-1.67L0,.7h2.31l2.2,6.01.35-.94c.6-1.62,1.25-3.43,1.85-5.07h2l2.21,6.01.35-.94c.6-1.62,1.25-3.43,1.85-5.07h2.3Z"/>
  <path class="uuid-dfe28571-eece-4151-827e-465763bed828" d="m23.85,4.69v3.11h-6.09v.84h6.09v2.14h-6.21c-1.11,0-2.03-.92-2.03-2.03v-4.06c0-1.11.92-2.03,2.03-2.03h4.17c1.12,0,2.03.92,2.03,2.03Zm-2.14,1.23v-1.12h-3.95v1.12h3.95Z"/>
  <path class="uuid-bcce1fd1-5563-4a59-8162-a00c704e5072" d="m27.55,3.73h-2.14V.9h2.14v2.83Z"/>
  <path class="uuid-51477702-8270-4373-b439-4c6aac7c34d5" d="m35.35,2.66v2.14h-4.38v5.98h-2.14v-6.09c0-1.11.92-2.03,2.04-2.03h4.48Z"/>
  <path class="uuid-59f486fe-74a1-47e7-b68d-227c4aa61e53" d="m44.55,4.69v3.11h-6.09v.84h6.09v2.14h-6.21c-1.11,0-2.03-.92-2.03-2.03v-4.06c0-1.11.92-2.03,2.03-2.03h4.17c1.12,0,2.03.92,2.03,2.03Zm-2.14,1.23v-1.12h-3.95v1.12h3.95Z"/>
  <path class="uuid-3e27f688-b695-4e6a-ba2d-f407ba760551" d="m58.79,4.69v6.09h-2.14v-5.98h-3.95v5.98h-2.14V0h2.14v2.66h4.06c1.11,0,2.03.92,2.03,2.03Z"/>
  <path class="uuid-064b8303-4745-436a-939c-8a68bb1518af" d="m68.09,4.69v3.11h-6.09v.84h6.09v2.14h-6.21c-1.11,0-2.03-.92-2.03-2.03v-4.06c0-1.11.92-2.03,2.03-2.03h4.17c1.12,0,2.03.92,2.03,2.03Zm-2.14,1.23v-1.12h-3.95v1.12h3.95Z"/>
  <path class="uuid-f58ee375-8486-4ebf-9f3d-088a9f0e178c" d="m75.98,2.66v2.14h-4.38v5.98h-2.14v-6.09c0-1.11.92-2.03,2.04-2.03h4.48Z"/>
  <path class="uuid-fe936e82-5abb-4463-b8e6-c7611cd7f1a9" d="m85.18,4.69v3.11h-6.09v.84h6.09v2.14h-6.21c-1.11,0-2.03-.92-2.03-2.03v-4.06c0-1.11.92-2.03,2.03-2.03h4.17c1.12,0,2.03.92,2.03,2.03Zm-2.14,1.23v-1.12h-3.95v1.12h3.95Z"/>
  <path class="uuid-218fe0e1-1a66-42f1-a094-3b08320075d0" d="m93.31,4.8v3.84h3.01v2.14h-3.11c-1.13,0-2.05-.92-2.05-2.03V.25h2.14v2.41h3.01v2.14h-3.01Z"/>
  <path class="uuid-bc6f652f-34a0-4640-8ec1-302dc515f055" d="m103.66,2.66c1.12,0,2.03.92,2.03,2.03v4.06c0,1.11-.91,2.03-2.03,2.03h-4.17c-1.11,0-2.03-.92-2.03-2.03v-4.06c0-1.11.92-2.03,2.03-2.03h4.17Zm-4.06,5.98h3.95v-3.84h-3.95v3.84Z"/>
  <path class="uuid-b534c5a1-ae1a-484c-88a8-baa70d192492" d="m123.5,4.69v6.09h-2.13v-5.98h-2.69v5.98h-2.16v-5.98h-2.69v5.98h-2.14V2.66h9.78c1.12,0,2.03.92,2.03,2.03Z"/>
  <path class="uuid-07fc7921-b3d0-4450-80c4-30a36ee73d50" d="m133.16,4.69v6.09h-6.21c-1.12,0-2.03-.92-2.03-2.03v-3.11h6.09v-.84h-6.09v-2.14h6.21c1.12,0,2.03.92,2.03,2.03Zm-2.14,2.83h-3.95v1.12h3.95v-1.12Z"/>
  <path class="uuid-58151459-f407-48ac-8488-2744bb4e8074" d="m142.68,2.66v.73l-3.03,3.33,3.03,3.33v.73h-2.16l-2.76-2.98h-1.09v2.98h-2.14V0h2.14v5.65h1.09l2.76-2.98h2.16Z"/>
  <path class="uuid-4b81e319-2a6c-4a08-8258-14af7cb3d1ce" d="m151.76,4.69v3.11h-6.09v.84h6.09v2.14h-6.21c-1.11,0-2.03-.92-2.03-2.03v-4.06c0-1.11.92-2.03,2.03-2.03h4.17c1.12,0,2.03.92,2.03,2.03Zm-2.14,1.23v-1.12h-3.95v1.12h3.95Z"/>
  <path class="uuid-e8be2231-ba05-4208-a2d9-f1823aa70311" d="m165.97,4.69v6.09h-6.21c-1.12,0-2.03-.92-2.03-2.03v-3.11h6.09v-.84h-6.09v-2.14h6.21c1.12,0,2.03.92,2.03,2.03Zm-2.14,2.83h-3.95v1.12h3.95v-1.12Z"/>
  <path class="uuid-0c0f00e0-aeeb-4f27-8190-92f59a7db444" d="m179.8,0v10.79h-6.22c-1.12,0-2.03-.92-2.03-2.03v-4.06c0-1.11.91-2.03,2.03-2.03h4.08V0h2.14Zm-6.09,8.64h3.95v-3.84h-3.95v3.84Z"/>
  <path class="uuid-2c2e8fa4-da1c-4c7d-8d3a-a03d307f44ea" d="m183.44,0v2.16h-2.14V0h2.14Zm-2.14,2.66h2.14v8.12h-2.14V2.66Z"/>
  <path class="uuid-a2e470af-533b-4850-89f1-0218ff399f67" d="m186.94,2.16v.5h3.01v2.14h-3.01v5.98h-2.14V2.03c0-1.11.91-2.03,2.04-2.03h3.11v2.16h-3.01Z"/>
  <path class="uuid-128dd25b-7a69-4350-b2b2-52214482cdf5" d="m193.1,2.16v.5h3.01v2.14h-3.01v5.98h-2.14V2.03c0-1.11.91-2.03,2.04-2.03h3.11v2.16h-3.01Z"/>
  <path class="uuid-8b389f8e-05fd-4d68-abe6-069cff0d8f6f" d="m205.33,4.69v3.11h-6.09v.84h6.09v2.14h-6.21c-1.11,0-2.03-.92-2.03-2.03v-4.06c0-1.11.92-2.03,2.03-2.03h4.17c1.12,0,2.03.92,2.03,2.03Zm-2.14,1.23v-1.12h-3.95v1.12h3.95Z"/>
  <path class="uuid-100eff80-72d6-4675-bd6d-33d4218bd851" d="m213.22,2.66v2.14h-4.38v5.98h-2.14v-6.09c0-1.11.92-2.03,2.04-2.03h4.48Z"/>
  <path class="uuid-ce544c5d-cfe3-46b0-adfd-9fd3b56ddab4" d="m222.42,4.69v3.11h-6.09v.84h6.09v2.14h-6.21c-1.11,0-2.03-.92-2.03-2.03v-4.06c0-1.11.92-2.03,2.03-2.03h4.17c1.12,0,2.03.92,2.03,2.03Zm-2.14,1.23v-1.12h-3.95v1.12h3.95Z"/>
  <path class="uuid-49434240-8cba-46ca-8521-fd08dfb2fcad" d="m232.15,4.69v6.09h-2.14v-5.98h-3.95v5.98h-2.14V2.66h6.21c1.12,0,2.03.92,2.03,2.03Z"/>
  <path class="uuid-368c1057-2aca-4df9-bc1b-02cfff9a7dd4" d="m235.41,4.8v3.84h6.09v2.14h-6.21c-1.11,0-2.03-.92-2.03-2.03v-4.06c0-1.11.92-2.03,2.03-2.03h6.19v2.14h-6.08Z"/>
  <path class="uuid-05da7e28-052b-4ca2-a026-c38516bc13d7" d="m250.88,4.69v3.11h-6.09v.84h6.09v2.14h-6.21c-1.11,0-2.03-.92-2.03-2.03v-4.06c0-1.11.92-2.03,2.03-2.03h4.17c1.12,0,2.03.92,2.03,2.03Zm-2.14,1.23v-1.12h-3.95v1.12h3.95Z"/>
  <path class="uuid-5434e2ec-0d60-4e66-8293-3dce61520ba7" d="m254.52,8.8v1.77c0,1.02-.92,1.88-2.14,2.09v-3.85h2.14Z"/>
  <path class="uuid-3bd0ab0e-b5a5-4f47-a106-8f2ea3bb61c5" d="m8.5,21.49v6.09h-2.14v-5.98h-3.95v5.98H.27v-8.12h6.21c1.12,0,2.03.92,2.03,2.03Z"/>
  <path class="uuid-935135e9-fb47-4a01-adaf-55842b37ecfc" d="m15.82,19.46c1.12,0,2.03.92,2.03,2.03v4.06c0,1.11-.91,2.03-2.03,2.03h-4.17c-1.11,0-2.03-.92-2.03-2.03v-4.06c0-1.11.92-2.03,2.03-2.03h4.17Zm-4.06,5.98h3.95v-3.84h-3.95v3.84Z"/>
  <path class="uuid-c9f288f2-05a9-450b-a42b-35539b11530c" d="m21.24,21.6v3.84h3.01v2.14h-3.11c-1.13,0-2.05-.92-2.05-2.03v-8.5h2.14v2.41h3.01v2.14h-3.01Z"/>
  <path class="uuid-4ba9ffcc-ab72-454a-a7e3-180e37295544" d="m32.13,28.47c0,1.12-.92,2.03-2.04,2.03h-3.53v-2.16h3.43v-8.88h2.14v9.01Zm0-11.67v2.16h-2.14v-2.16h2.14Z"/>
  <path class="uuid-9a9f7af3-e09b-4beb-b1aa-c703ea960dbf" d="m41.64,19.46v6.09c0,1.11-.91,2.03-2.03,2.03h-4.17c-1.12,0-2.03-.92-2.03-2.03v-6.09h2.14v5.98h3.95v-5.98h2.14Z"/>
  <path class="uuid-7c889620-b178-49f5-a2a7-c2dc4b8c9e16" d="m50.99,21.9h-2.16v-.29h-3.95v.84h4.06c1.13,0,2.04.92,2.04,2.03v1.08c0,1.11-.91,2.03-2.04,2.03h-4.17c-1.11,0-2.03-.92-2.03-2.03v-.41h2.14v.29h3.95v-.84h-4.06c-1.11,0-2.03-.92-2.03-2.03v-1.08c0-1.11.92-2.03,2.03-2.03h4.17c1.13,0,2.04.92,2.04,2.03v.41Z"/>
  <path class="uuid-937cd8b3-2a8c-4916-a7b0-01d692682383" d="m54.56,21.6v3.84h3.01v2.14h-3.11c-1.13,0-2.05-.92-2.05-2.03v-8.5h2.14v2.41h3.01v2.14h-3.01Z"/>
  <path class="uuid-1a87b375-6553-4cc5-86b0-e2e9214901ef" d="m71.46,21.49v6.09h-6.21c-1.12,0-2.03-.92-2.03-2.03v-3.11h6.09v-.84h-6.09v-2.14h6.21c1.12,0,2.03.92,2.03,2.03Zm-2.14,2.83h-3.95v1.12h3.95v-1.12Z"/>
  <path class="uuid-7f73b9cf-541f-4630-a858-4c5fc472f35d" d="m85.71,21.49v4.06c0,1.11-.91,2.03-2.03,2.03h-4.06v3.22h-2.14v-11.35h6.21c1.12,0,2.03.92,2.03,2.03Zm-6.09,3.95h3.95v-3.84h-3.95v3.84Z"/>
  <path class="uuid-9e7a2aec-04e1-4929-b9b3-68f338d94f43" d="m93.27,19.46v2.14h-4.38v5.98h-2.14v-6.09c0-1.11.92-2.03,2.04-2.03h4.48Z"/>
  <path class="uuid-d05842c0-b9e3-4beb-a612-6be3c7c97df7" d="m100.37,19.46c1.12,0,2.03.92,2.03,2.03v4.06c0,1.11-.91,2.03-2.03,2.03h-4.17c-1.11,0-2.03-.92-2.03-2.03v-4.06c0-1.11.92-2.03,2.03-2.03h4.17Zm-4.06,5.98h3.95v-3.84h-3.95v3.84Z"/>
  <path class="uuid-fb120a31-1f51-457c-a6ac-5c3e9cbe2b2d" d="m106.02,18.96v.5h3.01v2.14h-3.01v5.98h-2.14v-8.75c0-1.11.91-2.03,2.05-2.03h3.11v2.16h-3.01Z"/>
  <path class="uuid-4da0e7c1-804f-4d95-949f-3857d096122d" d="m112.17,16.8v2.16h-2.14v-2.16h2.14Zm-2.14,2.66h2.14v8.12h-2.14v-8.12Z"/>
  <path class="uuid-4c13d15c-aa91-4d62-8b1f-d321855a7d71" d="m115.67,21.6v3.84h3.01v2.14h-3.11c-1.13,0-2.05-.92-2.05-2.03v-8.5h2.14v2.41h3.01v2.14h-3.01Z"/>
  <path class="uuid-9e749a18-77df-4d5f-a732-495a0d3ee7d2" d="m122.14,27.59h-2.14v-2.14h2.14v2.14Z"/>
</svg>