<?xml version="1.0" encoding="UTF-8"?>
<svg id="uuid-8edff62c-1f61-4563-994a-8669d6c2f69e" data-name="Layer 1" xmlns="http://www.w3.org/2000/svg" xmlns:xlink="http://www.w3.org/1999/xlink" viewBox="0 0 210.6 30.81">
  <defs>
    <style>
      .uuid-8597d1a6-7a79-4e34-b183-5e5accd75f9e {
        fill: url(#uuid-4c082914-9035-4a90-acaf-291f40a38164);
      }

      .uuid-8597d1a6-7a79-4e34-b183-5e5accd75f9e, .uuid-af46954a-66b5-4d74-8199-79c2ac92f96a, .uuid-35b0513b-a608-4902-b96c-5bda2281e91a, .uuid-ec80e8cc-99f1-4372-ac3c-5e41e32e8637, .uuid-ed295b53-68a5-439c-b224-d6084c424e20, .uuid-4058c47b-3fe7-43cd-9886-0af02cc4f528, .uuid-2b76e212-a546-4367-9e41-310937ac3aa3, .uuid-44fc605b-84f0-4a7f-ae40-6a7f77ca7d96, .uuid-973a9eaa-dbb5-4032-9624-fd9515ead375, .uuid-d1994b4b-5223-45f3-85bf-771cb6762dff, .uuid-8ec764b6-5fc6-4559-a5fe-2bad74161144, .uuid-2fb73561-29d3-439a-9db8-6197b2b6b385, .uuid-e581506b-a0dd-4e96-bc09-a927efeb983b, .uuid-dbdd0a12-6456-4bff-9b4b-4669f9a180ad, .uuid-0c4142ec-9c2c-4947-a1a8-563d619ed241, .uuid-9557032b-f9de-40f1-a721-cecc538c46f5, .uuid-873cebd8-8ae6-44a6-966f-563bac9017c3, .uuid-dc050347-739f-4613-8e77-963dd67eb2ad, .uuid-0c32e530-a2c3-4522-af43-c3059bb98a2d, .uuid-67813cd5-f2e9-496d-bfc4-4d22a442c98c, .uuid-0683fb73-be4b-474b-bee2-7337c628f685, .uuid-b63b9561-bb22-4cac-85f1-23d1f319c745, .uuid-8c83df99-c2da-4e48-bcce-73e0e6965164, .uuid-d7dcfd5e-96a2-48a3-9d0e-e41a0f7114b8, .uuid-141e5091-8815-4508-946d-816155eb42ab, .uuid-09b28724-cd0a-4505-95b1-f1b250992916, .uuid-fa3ac699-bca0-49cd-a64a-5d86f1de6b6b, .uuid-b4349784-8e4c-4e55-af5c-523f573e2cea, .uuid-728d419a-619a-4a85-a6fe-95c4c6406ae6, .uuid-1c113520-f7c2-4c00-9016-d8431bebb041, .uuid-b6c86e2f-c564-41a3-80d5-61065af5e96e, .uuid-b4adbbe6-8ee0-405d-bfd6-39d8990dc18a, .uuid-792380a7-37d1-400a-8875-d87d270d1841, .uuid-feaf23da-bc39-48b3-8fc6-9443a50ad776, .uuid-a6dd4112-13a5-42ae-87f4-d53841bdbc5a, .uuid-e6b2503c-e8b4-4bd1-ad69-5217188d1030, .uuid-26226392-e24b-4051-9080-7a9bb37eb0d6, .uuid-23e78c67-d95f-4e36-b0be-630b84b05567, .uuid-7aacb272-818c-4133-bc24-cec505254ea4, .uuid-9c8627d8-cbde-4f63-9253-6b51da368e87, .uuid-929e221c-d9a0-4374-94d7-9465fa4ce0fc, .uuid-d25800f3-a694-4775-8fc6-57017c4b6eea {
        stroke-width: 0px;
      }

      .uuid-af46954a-66b5-4d74-8199-79c2ac92f96a {
        fill: url(#uuid-02ff066c-5818-4f77-97b8-7bf7e894712e);
      }

      .uuid-35b0513b-a608-4902-b96c-5bda2281e91a {
        fill: url(#uuid-433b7cd7-240e-4023-afbd-df8f347f7459);
      }

      .uuid-ec80e8cc-99f1-4372-ac3c-5e41e32e8637 {
        fill: url(#uuid-615de2fe-f14a-4898-9ae7-42047ea433ac);
      }

      .uuid-ed295b53-68a5-439c-b224-d6084c424e20 {
        fill: url(#uuid-616d537e-4728-4e6a-986d-96cb13a1ef9c);
      }

      .uuid-4058c47b-3fe7-43cd-9886-0af02cc4f528 {
        fill: url(#uuid-97ab921f-a6a4-4626-b2f1-b3fba95ef1dc);
      }

      .uuid-2b76e212-a546-4367-9e41-310937ac3aa3 {
        fill: url(#uuid-8698acf2-0467-4ddb-a84c-99389514b660);
      }

      .uuid-44fc605b-84f0-4a7f-ae40-6a7f77ca7d96 {
        fill: url(#uuid-b4e92b6f-0c2d-4721-8cac-3b4c0e5986e4);
      }

      .uuid-973a9eaa-dbb5-4032-9624-fd9515ead375 {
        fill: url(#uuid-89cb33ea-03a0-484e-8517-2d2705e18366);
      }

      .uuid-d1994b4b-5223-45f3-85bf-771cb6762dff {
        fill: url(#uuid-774bad70-bbef-4370-a967-ecfd2370666b);
      }

      .uuid-8ec764b6-5fc6-4559-a5fe-2bad74161144 {
        fill: url(#uuid-9f7e85b9-cb46-4a99-883b-ed86cc72b668);
      }

      .uuid-2fb73561-29d3-439a-9db8-6197b2b6b385 {
        fill: url(#uuid-6939436d-fe1f-449d-b068-a89e0ca96d39);
      }

      .uuid-e581506b-a0dd-4e96-bc09-a927efeb983b {
        fill: url(#uuid-4b5a96ab-0854-457d-b0cf-8b73d9854a0d);
      }

      .uuid-dbdd0a12-6456-4bff-9b4b-4669f9a180ad {
        fill: url(#uuid-1688222d-c393-4fb1-9849-aad4ceb2e06c);
      }

      .uuid-0c4142ec-9c2c-4947-a1a8-563d619ed241 {
        fill: url(#uuid-46a17182-4d0d-4492-9b04-a3347385a801);
      }

      .uuid-9557032b-f9de-40f1-a721-cecc538c46f5 {
        fill: url(#uuid-bfc6b4ec-7402-4f82-983f-b0fcd9b7fdd1);
      }

      .uuid-873cebd8-8ae6-44a6-966f-563bac9017c3 {
        fill: url(#uuid-0817c412-9ebc-410f-b712-586e3c3b3147);
      }

      .uuid-dc050347-739f-4613-8e77-963dd67eb2ad {
        fill: url(#uuid-151a2571-1fca-4098-aed3-38d8f242cf34);
      }

      .uuid-0c32e530-a2c3-4522-af43-c3059bb98a2d {
        fill: url(#uuid-a3e951d9-dc85-4665-860d-f1278a9abf8b);
      }

      .uuid-67813cd5-f2e9-496d-bfc4-4d22a442c98c {
        fill: url(#uuid-89dbdde9-0ca6-44e9-a47a-b2b73132459a);
      }

      .uuid-0683fb73-be4b-474b-bee2-7337c628f685 {
        fill: url(#uuid-9c004207-bdc1-4934-950a-264cd1baadb4);
      }

      .uuid-b63b9561-bb22-4cac-85f1-23d1f319c745 {
        fill: url(#uuid-289402b5-65f0-4a4f-8573-01a869abc775);
      }

      .uuid-8c83df99-c2da-4e48-bcce-73e0e6965164 {
        fill: url(#uuid-18a06955-e69e-4b00-bf2a-9327c721a5a4);
      }

      .uuid-d7dcfd5e-96a2-48a3-9d0e-e41a0f7114b8 {
        fill: url(#uuid-ffae3fbd-aa54-4203-9466-c1c306e2e8b5);
      }

      .uuid-141e5091-8815-4508-946d-816155eb42ab {
        fill: url(#uuid-f84e66fd-7117-4524-a2c1-0f099217a56f);
      }

      .uuid-09b28724-cd0a-4505-95b1-f1b250992916 {
        fill: url(#uuid-5fb74190-ea14-46c7-af6d-ff181dddde68);
      }

      .uuid-fa3ac699-bca0-49cd-a64a-5d86f1de6b6b {
        fill: url(#uuid-c41dbc38-38c9-4a6a-bff4-cdd779f9fe48);
      }

      .uuid-b4349784-8e4c-4e55-af5c-523f573e2cea {
        fill: url(#uuid-22f19949-0007-4c92-8d3f-e458431313b0);
      }

      .uuid-728d419a-619a-4a85-a6fe-95c4c6406ae6 {
        fill: url(#uuid-2399bb26-cf9d-4a16-a888-dce28df64c0b);
      }

      .uuid-1c113520-f7c2-4c00-9016-d8431bebb041 {
        fill: url(#uuid-397448d3-e1d4-43b9-bbb6-9595e858ffa6);
      }

      .uuid-b6c86e2f-c564-41a3-80d5-61065af5e96e {
        fill: url(#uuid-2055c9ba-8eb8-470a-b432-0c4582db5823);
      }

      .uuid-b4adbbe6-8ee0-405d-bfd6-39d8990dc18a {
        fill: url(#uuid-50c0b2f9-764d-4708-b758-23290c600e4f);
      }

      .uuid-792380a7-37d1-400a-8875-d87d270d1841 {
        fill: url(#uuid-5675e145-b91f-4ec6-bb0f-abccfde2e96b);
      }

      .uuid-feaf23da-bc39-48b3-8fc6-9443a50ad776 {
        fill: url(#uuid-48675f86-934f-4b5f-a46d-187f69edf540);
      }

      .uuid-a6dd4112-13a5-42ae-87f4-d53841bdbc5a {
        fill: url(#uuid-9e21f43a-11bc-4b45-98ab-17f42596c60c);
      }

      .uuid-e6b2503c-e8b4-4bd1-ad69-5217188d1030 {
        fill: url(#uuid-d90c21af-e784-42e3-9156-964dfbd6b80d);
      }

      .uuid-26226392-e24b-4051-9080-7a9bb37eb0d6 {
        fill: url(#uuid-ab95b12b-7d14-48f1-aa49-25cd1310a5e3);
      }

      .uuid-23e78c67-d95f-4e36-b0be-630b84b05567 {
        fill: url(#uuid-d12bcac0-288d-499f-b6cb-97f7d67cfc72);
      }

      .uuid-7aacb272-818c-4133-bc24-cec505254ea4 {
        fill: url(#uuid-8dafcb62-a21f-494d-94b0-f2de51d45832);
      }

      .uuid-9c8627d8-cbde-4f63-9253-6b51da368e87 {
        fill: url(#uuid-9d730bc0-3816-438e-86da-965798572a96);
      }

      .uuid-929e221c-d9a0-4374-94d7-9465fa4ce0fc {
        fill: url(#uuid-b7d65996-64ac-4a35-ab7f-4e92a6ffa647);
      }

      .uuid-d25800f3-a694-4775-8fc6-57017c4b6eea {
        fill: url(#uuid-bc0aa43b-bddc-4dc8-9d29-f8fc9de75f9c);
      }
    </style>
    <linearGradient id="uuid-02ff066c-5818-4f77-97b8-7bf7e894712e" x1="13.34" y1="9.37" x2="2.42" y2="-1.55" gradientUnits="userSpaceOnUse">
      <stop offset="0" stop-color="#dce35b"/>
      <stop offset="1" stop-color="#45b649"/>
    </linearGradient>
    <linearGradient id="uuid-9c004207-bdc1-4934-950a-264cd1baadb4" x1="23.99" y1="10.81" x2="16.41" y2="3.23" xlink:href="#uuid-02ff066c-5818-4f77-97b8-7bf7e894712e"/>
    <linearGradient id="uuid-5fb74190-ea14-46c7-af6d-ff181dddde68" x1="27.89" y1="3.55" x2="25.41" y2="1.07" xlink:href="#uuid-02ff066c-5818-4f77-97b8-7bf7e894712e"/>
    <linearGradient id="uuid-89dbdde9-0ca6-44e9-a47a-b2b73132459a" x1="33.73" y1="8.19" x2="29.2" y2="3.66" xlink:href="#uuid-02ff066c-5818-4f77-97b8-7bf7e894712e"/>
    <linearGradient id="uuid-1688222d-c393-4fb1-9849-aad4ceb2e06c" x1="44.69" y1="10.81" x2="37.11" y2="3.23" xlink:href="#uuid-02ff066c-5818-4f77-97b8-7bf7e894712e"/>
    <linearGradient id="uuid-0817c412-9ebc-410f-b712-586e3c3b3147" x1="58.63" y1="11.11" x2="49.12" y2="1.6" xlink:href="#uuid-02ff066c-5818-4f77-97b8-7bf7e894712e"/>
    <linearGradient id="uuid-bc0aa43b-bddc-4dc8-9d29-f8fc9de75f9c" x1="68.23" y1="10.81" x2="60.65" y2="3.23" xlink:href="#uuid-02ff066c-5818-4f77-97b8-7bf7e894712e"/>
    <linearGradient id="uuid-289402b5-65f0-4a4f-8573-01a869abc775" x1="74.36" y1="8.19" x2="69.82" y2="3.66" xlink:href="#uuid-02ff066c-5818-4f77-97b8-7bf7e894712e"/>
    <linearGradient id="uuid-2055c9ba-8eb8-470a-b432-0c4582db5823" x1="85.32" y1="10.81" x2="77.74" y2="3.23" xlink:href="#uuid-02ff066c-5818-4f77-97b8-7bf7e894712e"/>
    <linearGradient id="uuid-d12bcac0-288d-499f-b6cb-97f7d67cfc72" x1="97.53" y1="9.74" x2="89.69" y2="1.9" xlink:href="#uuid-02ff066c-5818-4f77-97b8-7bf7e894712e"/>
    <linearGradient id="uuid-8dafcb62-a21f-494d-94b0-f2de51d45832" x1="105.23" y1="10.21" x2="98.25" y2="3.23" xlink:href="#uuid-02ff066c-5818-4f77-97b8-7bf7e894712e"/>
    <linearGradient id="uuid-c41dbc38-38c9-4a6a-bff4-cdd779f9fe48" x1="122.45" y1="12.01" x2="112.48" y2="2.04" xlink:href="#uuid-02ff066c-5818-4f77-97b8-7bf7e894712e"/>
    <linearGradient id="uuid-9e21f43a-11bc-4b45-98ab-17f42596c60c" x1="133.3" y1="10.81" x2="125.12" y2="2.63" xlink:href="#uuid-02ff066c-5818-4f77-97b8-7bf7e894712e"/>
    <linearGradient id="uuid-9f7e85b9-cb46-4a99-883b-ed86cc72b668" x1="142.84" y1="10.79" x2="133.37" y2="1.32" xlink:href="#uuid-02ff066c-5818-4f77-97b8-7bf7e894712e"/>
    <linearGradient id="uuid-2399bb26-cf9d-4a16-a888-dce28df64c0b" x1="151.9" y1="10.81" x2="144.32" y2="3.23" xlink:href="#uuid-02ff066c-5818-4f77-97b8-7bf7e894712e"/>
    <linearGradient id="uuid-9d730bc0-3816-438e-86da-965798572a96" x1="166.11" y1="10.81" x2="157.93" y2="2.63" xlink:href="#uuid-02ff066c-5818-4f77-97b8-7bf7e894712e"/>
    <linearGradient id="uuid-4c082914-9035-4a90-acaf-291f40a38164" x1="9.18" y1="26.65" x2="1.59" y2="19.06" xlink:href="#uuid-02ff066c-5818-4f77-97b8-7bf7e894712e"/>
    <linearGradient id="uuid-ffae3fbd-aa54-4203-9466-c1c306e2e8b5" x1="14.05" y1="25.43" x2="7.58" y2="18.96" xlink:href="#uuid-02ff066c-5818-4f77-97b8-7bf7e894712e"/>
    <linearGradient id="uuid-f84e66fd-7117-4524-a2c1-0f099217a56f" x1="18.3" y1="24.67" x2="12.43" y2="18.81" xlink:href="#uuid-02ff066c-5818-4f77-97b8-7bf7e894712e"/>
    <linearGradient id="uuid-774bad70-bbef-4370-a967-ecfd2370666b" x1="24.46" y1="24.67" x2="18.59" y2="18.81" xlink:href="#uuid-02ff066c-5818-4f77-97b8-7bf7e894712e"/>
    <linearGradient id="uuid-433b7cd7-240e-4023-afbd-df8f347f7459" x1="33.74" y1="27.61" x2="26.17" y2="20.03" xlink:href="#uuid-02ff066c-5818-4f77-97b8-7bf7e894712e"/>
    <linearGradient id="uuid-b4e92b6f-0c2d-4721-8cac-3b4c0e5986e4" x1="39.87" y1="24.99" x2="35.34" y2="20.46" xlink:href="#uuid-02ff066c-5818-4f77-97b8-7bf7e894712e"/>
    <linearGradient id="uuid-22f19949-0007-4c92-8d3f-e458431313b0" x1="50.84" y1="27.61" x2="43.26" y2="20.03" xlink:href="#uuid-02ff066c-5818-4f77-97b8-7bf7e894712e"/>
    <linearGradient id="uuid-bfc6b4ec-7402-4f82-983f-b0fcd9b7fdd1" x1="60.27" y1="27.91" x2="52.09" y2="19.73" xlink:href="#uuid-02ff066c-5818-4f77-97b8-7bf7e894712e"/>
    <linearGradient id="uuid-397448d3-e1d4-43b9-bbb6-9595e858ffa6" x1="70.22" y1="27.32" x2="62.64" y2="19.74" xlink:href="#uuid-02ff066c-5818-4f77-97b8-7bf7e894712e"/>
    <linearGradient id="uuid-151a2571-1fca-4098-aed3-38d8f242cf34" x1="79.3" y1="27.61" x2="71.72" y2="20.03" xlink:href="#uuid-02ff066c-5818-4f77-97b8-7bf7e894712e"/>
    <linearGradient id="uuid-48675f86-934f-4b5f-a46d-187f69edf540" x1="82.72" y1="28.35" x2="80.39" y2="26.02" xlink:href="#uuid-02ff066c-5818-4f77-97b8-7bf7e894712e"/>
    <linearGradient id="uuid-50c0b2f9-764d-4708-b758-23290c600e4f" x1="96.64" y1="27.91" x2="88.46" y2="19.73" xlink:href="#uuid-02ff066c-5818-4f77-97b8-7bf7e894712e"/>
    <linearGradient id="uuid-6939436d-fe1f-449d-b068-a89e0ca96d39" x1="105.69" y1="27.01" x2="98.71" y2="20.03" xlink:href="#uuid-02ff066c-5818-4f77-97b8-7bf7e894712e"/>
    <linearGradient id="uuid-18a06955-e69e-4b00-bf2a-9327c721a5a4" x1="113.76" y1="26.54" x2="105.91" y2="18.7" xlink:href="#uuid-02ff066c-5818-4f77-97b8-7bf7e894712e"/>
    <linearGradient id="uuid-4b5a96ab-0854-457d-b0cf-8b73d9854a0d" x1="122.03" y1="27.87" x2="114.71" y2="20.55" xlink:href="#uuid-02ff066c-5818-4f77-97b8-7bf7e894712e"/>
    <linearGradient id="uuid-b7d65996-64ac-4a35-ab7f-4e92a6ffa647" x1="129.78" y1="26.72" x2="122.2" y2="19.13" xlink:href="#uuid-02ff066c-5818-4f77-97b8-7bf7e894712e"/>
    <linearGradient id="uuid-d90c21af-e784-42e3-9156-964dfbd6b80d" x1="138.83" y1="27.02" x2="131.84" y2="20.03" xlink:href="#uuid-02ff066c-5818-4f77-97b8-7bf7e894712e"/>
    <linearGradient id="uuid-8698acf2-0467-4ddb-a84c-99389514b660" x1="147.08" y1="26.54" x2="139.23" y2="18.7" xlink:href="#uuid-02ff066c-5818-4f77-97b8-7bf7e894712e"/>
    <linearGradient id="uuid-615de2fe-f14a-4898-9ae7-42047ea433ac" x1="159.9" y1="27.61" x2="151.72" y2="19.43" xlink:href="#uuid-02ff066c-5818-4f77-97b8-7bf7e894712e"/>
    <linearGradient id="uuid-97ab921f-a6a4-4626-b2f1-b3fba95ef1dc" x1="172.45" y1="28.12" x2="164.86" y2="20.54" xlink:href="#uuid-02ff066c-5818-4f77-97b8-7bf7e894712e"/>
    <linearGradient id="uuid-89cb33ea-03a0-484e-8517-2d2705e18366" x1="179.94" y1="24.99" x2="175.41" y2="20.46" xlink:href="#uuid-02ff066c-5818-4f77-97b8-7bf7e894712e"/>
    <linearGradient id="uuid-46a17182-4d0d-4492-9b04-a3347385a801" x1="190.24" y1="27.01" x2="183.26" y2="20.03" xlink:href="#uuid-02ff066c-5818-4f77-97b8-7bf7e894712e"/>
    <linearGradient id="uuid-5675e145-b91f-4ec6-bb0f-abccfde2e96b" x1="197.4" y1="24.67" x2="191.53" y2="18.81" xlink:href="#uuid-02ff066c-5818-4f77-97b8-7bf7e894712e"/>
    <linearGradient id="uuid-a3e951d9-dc85-4665-860d-f1278a9abf8b" x1="202.79" y1="25.43" x2="196.33" y2="18.96" xlink:href="#uuid-02ff066c-5818-4f77-97b8-7bf7e894712e"/>
    <linearGradient id="uuid-ab95b12b-7d14-48f1-aa49-25cd1310a5e3" x1="208.19" y1="26.54" x2="200.34" y2="18.7" xlink:href="#uuid-02ff066c-5818-4f77-97b8-7bf7e894712e"/>
    <linearGradient id="uuid-616d537e-4728-4e6a-986d-96cb13a1ef9c" x1="210.6" y1="27.59" x2="208.46" y2="25.44" xlink:href="#uuid-02ff066c-5818-4f77-97b8-7bf7e894712e"/>
  </defs>
  <path class="uuid-af46954a-66b5-4d74-8199-79c2ac92f96a" d="m15.59.7l-3.67,10.09h-1.67l-2.38-6.49-.9,2.47c-.48,1.3-1.02,2.75-1.47,4.02h-1.67L.17.7h2.31l2.2,6.01.35-.94c.6-1.62,1.25-3.43,1.85-5.07h2l2.21,6.01.35-.94c.6-1.62,1.25-3.43,1.85-5.07h2.3Z"/>
  <path class="uuid-0683fb73-be4b-474b-bee2-7337c628f685" d="m24.01,4.69v3.11h-6.09v.84h6.09v2.14h-6.21c-1.11,0-2.03-.92-2.03-2.03v-4.06c0-1.11.92-2.03,2.03-2.03h4.17c1.12,0,2.03.92,2.03,2.03Zm-2.14,1.23v-1.12h-3.95v1.12h3.95Z"/>
  <path class="uuid-09b28724-cd0a-4505-95b1-f1b250992916" d="m27.72,3.73h-2.14V.9h2.14v2.83Z"/>
  <path class="uuid-67813cd5-f2e9-496d-bfc4-4d22a442c98c" d="m35.52,2.66v2.14h-4.38v5.98h-2.14v-6.09c0-1.11.92-2.03,2.04-2.03h4.48Z"/>
  <path class="uuid-dbdd0a12-6456-4bff-9b4b-4669f9a180ad" d="m44.72,4.69v3.11h-6.09v.84h6.09v2.14h-6.21c-1.11,0-2.03-.92-2.03-2.03v-4.06c0-1.11.92-2.03,2.03-2.03h4.17c1.12,0,2.03.92,2.03,2.03Zm-2.14,1.23v-1.12h-3.95v1.12h3.95Z"/>
  <path class="uuid-873cebd8-8ae6-44a6-966f-563bac9017c3" d="m58.96,4.69v6.09h-2.14v-5.98h-3.95v5.98h-2.14V0h2.14v2.66h4.06c1.11,0,2.03.92,2.03,2.03Z"/>
  <path class="uuid-d25800f3-a694-4775-8fc6-57017c4b6eea" d="m68.25,4.69v3.11h-6.09v.84h6.09v2.14h-6.21c-1.11,0-2.03-.92-2.03-2.03v-4.06c0-1.11.92-2.03,2.03-2.03h4.17c1.12,0,2.03.92,2.03,2.03Zm-2.14,1.23v-1.12h-3.95v1.12h3.95Z"/>
  <path class="uuid-b63b9561-bb22-4cac-85f1-23d1f319c745" d="m76.15,2.66v2.14h-4.38v5.98h-2.14v-6.09c0-1.11.92-2.03,2.04-2.03h4.48Z"/>
  <path class="uuid-b6c86e2f-c564-41a3-80d5-61065af5e96e" d="m85.35,4.69v3.11h-6.09v.84h6.09v2.14h-6.21c-1.11,0-2.03-.92-2.03-2.03v-4.06c0-1.11.92-2.03,2.03-2.03h4.17c1.12,0,2.03.92,2.03,2.03Zm-2.14,1.23v-1.12h-3.95v1.12h3.95Z"/>
  <path class="uuid-23e78c67-d95f-4e36-b0be-630b84b05567" d="m93.48,4.8v3.84h3.01v2.14h-3.11c-1.13,0-2.05-.92-2.05-2.03V.25h2.14v2.41h3.01v2.14h-3.01Z"/>
  <path class="uuid-7aacb272-818c-4133-bc24-cec505254ea4" d="m103.83,2.66c1.12,0,2.03.92,2.03,2.03v4.06c0,1.11-.91,2.03-2.03,2.03h-4.17c-1.11,0-2.03-.92-2.03-2.03v-4.06c0-1.11.92-2.03,2.03-2.03h4.17Zm-4.06,5.98h3.95v-3.84h-3.95v3.84Z"/>
  <path class="uuid-fa3ac699-bca0-49cd-a64a-5d86f1de6b6b" d="m123.67,4.69v6.09h-2.13v-5.98h-2.69v5.98h-2.16v-5.98h-2.69v5.98h-2.14V2.66h9.78c1.12,0,2.03.92,2.03,2.03Z"/>
  <path class="uuid-a6dd4112-13a5-42ae-87f4-d53841bdbc5a" d="m133.33,4.69v6.09h-6.21c-1.12,0-2.03-.92-2.03-2.03v-3.11h6.09v-.84h-6.09v-2.14h6.21c1.12,0,2.03.92,2.03,2.03Zm-2.14,2.83h-3.95v1.12h3.95v-1.12Z"/>
  <path class="uuid-8ec764b6-5fc6-4559-a5fe-2bad74161144" d="m142.85,2.66v.73l-3.03,3.33,3.03,3.33v.73h-2.16l-2.76-2.98h-1.09v2.98h-2.14V0h2.14v5.65h1.09l2.76-2.98h2.16Z"/>
  <path class="uuid-728d419a-619a-4a85-a6fe-95c4c6406ae6" d="m151.93,4.69v3.11h-6.09v.84h6.09v2.14h-6.21c-1.11,0-2.03-.92-2.03-2.03v-4.06c0-1.11.92-2.03,2.03-2.03h4.17c1.12,0,2.03.92,2.03,2.03Zm-2.14,1.23v-1.12h-3.95v1.12h3.95Z"/>
  <path class="uuid-9c8627d8-cbde-4f63-9253-6b51da368e87" d="m166.14,4.69v6.09h-6.21c-1.12,0-2.03-.92-2.03-2.03v-3.11h6.09v-.84h-6.09v-2.14h6.21c1.12,0,2.03.92,2.03,2.03Zm-2.14,2.83h-3.95v1.12h3.95v-1.12Z"/>
  <path class="uuid-8597d1a6-7a79-4e34-b183-5e5accd75f9e" d="m8.25,16.8v10.79H2.03c-1.12,0-2.03-.92-2.03-2.03v-4.06c0-1.11.91-2.03,2.03-2.03h4.08v-2.66h2.14Zm-6.09,8.64h3.95v-3.84h-3.95v3.84Z"/>
  <path class="uuid-d7dcfd5e-96a2-48a3-9d0e-e41a0f7114b8" d="m11.89,16.8v2.16h-2.14v-2.16h2.14Zm-2.14,2.66h2.14v8.12h-2.14v-8.12Z"/>
  <path class="uuid-141e5091-8815-4508-946d-816155eb42ab" d="m15.39,18.96v.5h3.01v2.14h-3.01v5.98h-2.14v-8.75c0-1.11.91-2.03,2.05-2.03h3.11v2.16h-3.01Z"/>
  <path class="uuid-d1994b4b-5223-45f3-85bf-771cb6762dff" d="m21.55,18.96v.5h3.01v2.14h-3.01v5.98h-2.14v-8.75c0-1.11.91-2.03,2.05-2.03h3.11v2.16h-3.01Z"/>
  <path class="uuid-35b0513b-a608-4902-b96c-5bda2281e91a" d="m33.77,21.49v3.11h-6.09v.84h6.09v2.14h-6.21c-1.11,0-2.03-.92-2.03-2.03v-4.06c0-1.11.92-2.03,2.03-2.03h4.17c1.12,0,2.03.92,2.03,2.03Zm-2.14,1.23v-1.12h-3.95v1.12h3.95Z"/>
  <path class="uuid-44fc605b-84f0-4a7f-ae40-6a7f77ca7d96" d="m41.67,19.46v2.14h-4.38v5.98h-2.14v-6.09c0-1.11.92-2.03,2.04-2.03h4.48Z"/>
  <path class="uuid-b4349784-8e4c-4e55-af5c-523f573e2cea" d="m50.87,21.49v3.11h-6.09v.84h6.09v2.14h-6.21c-1.11,0-2.03-.92-2.03-2.03v-4.06c0-1.11.92-2.03,2.03-2.03h4.17c1.12,0,2.03.92,2.03,2.03Zm-2.14,1.23v-1.12h-3.95v1.12h3.95Z"/>
  <path class="uuid-9557032b-f9de-40f1-a721-cecc538c46f5" d="m60.6,21.49v6.09h-2.14v-5.98h-3.95v5.98h-2.14v-8.12h6.21c1.12,0,2.03.92,2.03,2.03Z"/>
  <path class="uuid-1c113520-f7c2-4c00-9016-d8431bebb041" d="m63.85,21.6v3.84h6.09v2.14h-6.21c-1.11,0-2.03-.92-2.03-2.03v-4.06c0-1.11.92-2.03,2.03-2.03h6.19v2.14h-6.08Z"/>
  <path class="uuid-dc050347-739f-4613-8e77-963dd67eb2ad" d="m79.33,21.49v3.11h-6.09v.84h6.09v2.14h-6.21c-1.11,0-2.03-.92-2.03-2.03v-4.06c0-1.11.92-2.03,2.03-2.03h4.17c1.12,0,2.03.92,2.03,2.03Zm-2.14,1.23v-1.12h-3.95v1.12h3.95Z"/>
  <path class="uuid-feaf23da-bc39-48b3-8fc6-9443a50ad776" d="m82.96,25.6v1.77c0,1.02-.92,1.88-2.14,2.09v-3.85h2.14Z"/>
  <path class="uuid-b4adbbe6-8ee0-405d-bfd6-39d8990dc18a" d="m96.97,21.49v6.09h-2.14v-5.98h-3.95v5.98h-2.14v-8.12h6.21c1.12,0,2.03.92,2.03,2.03Z"/>
  <path class="uuid-2fb73561-29d3-439a-9db8-6197b2b6b385" d="m104.29,19.46c1.12,0,2.03.92,2.03,2.03v4.06c0,1.11-.91,2.03-2.03,2.03h-4.17c-1.11,0-2.03-.92-2.03-2.03v-4.06c0-1.11.92-2.03,2.03-2.03h4.17Zm-4.06,5.98h3.95v-3.84h-3.95v3.84Z"/>
  <path class="uuid-8c83df99-c2da-4e48-bcce-73e0e6965164" d="m109.7,21.6v3.84h3.01v2.14h-3.11c-1.13,0-2.05-.92-2.05-2.03v-8.5h2.14v2.41h3.01v2.14h-3.01Z"/>
  <path class="uuid-e581506b-a0dd-4e96-bc09-a927efeb983b" d="m120.6,28.47c0,1.12-.92,2.03-2.04,2.03h-3.53v-2.16h3.43v-8.88h2.14v9.01Zm0-11.67v2.16h-2.14v-2.16h2.14Z"/>
  <path class="uuid-929e221c-d9a0-4374-94d7-9465fa4ce0fc" d="m130.11,19.46v6.09c0,1.11-.91,2.03-2.03,2.03h-4.17c-1.12,0-2.03-.92-2.03-2.03v-6.09h2.14v5.98h3.95v-5.98h2.14Z"/>
  <path class="uuid-e6b2503c-e8b4-4bd1-ad69-5217188d1030" d="m139.46,21.9h-2.16v-.29h-3.95v.84h4.06c1.13,0,2.04.92,2.04,2.03v1.08c0,1.11-.91,2.03-2.04,2.03h-4.17c-1.11,0-2.03-.92-2.03-2.03v-.41h2.14v.29h3.95v-.84h-4.06c-1.11,0-2.03-.92-2.03-2.03v-1.08c0-1.11.92-2.03,2.03-2.03h4.17c1.13,0,2.04.92,2.04,2.03v.41Z"/>
  <path class="uuid-2b76e212-a546-4367-9e41-310937ac3aa3" d="m143.02,21.6v3.84h3.01v2.14h-3.11c-1.13,0-2.04-.92-2.04-2.03v-8.5h2.14v2.41h3.01v2.14h-3.01Z"/>
  <path class="uuid-ec80e8cc-99f1-4372-ac3c-5e41e32e8637" d="m159.92,21.49v6.09h-6.21c-1.12,0-2.03-.92-2.03-2.03v-3.11h6.09v-.84h-6.09v-2.14h6.21c1.12,0,2.03.92,2.03,2.03Zm-2.14,2.83h-3.95v1.12h3.95v-1.12Z"/>
  <path class="uuid-4058c47b-3fe7-43cd-9886-0af02cc4f528" d="m174.18,21.49v4.06c0,1.11-.91,2.03-2.03,2.03h-4.06v3.22h-2.14v-11.35h6.21c1.12,0,2.03.92,2.03,2.03Zm-6.09,3.95h3.95v-3.84h-3.95v3.84Z"/>
  <path class="uuid-973a9eaa-dbb5-4032-9624-fd9515ead375" d="m181.74,19.46v2.14h-4.38v5.98h-2.14v-6.09c0-1.11.92-2.03,2.04-2.03h4.48Z"/>
  <path class="uuid-0c4142ec-9c2c-4947-a1a8-563d619ed241" d="m188.83,19.46c1.12,0,2.03.92,2.03,2.03v4.06c0,1.11-.91,2.03-2.03,2.03h-4.17c-1.11,0-2.03-.92-2.03-2.03v-4.06c0-1.11.92-2.03,2.03-2.03h4.17Zm-4.06,5.98h3.95v-3.84h-3.95v3.84Z"/>
  <path class="uuid-792380a7-37d1-400a-8875-d87d270d1841" d="m194.49,18.96v.5h3.01v2.14h-3.01v5.98h-2.14v-8.75c0-1.11.91-2.03,2.04-2.03h3.11v2.16h-3.01Z"/>
  <path class="uuid-0c32e530-a2c3-4522-af43-c3059bb98a2d" d="m200.63,16.8v2.16h-2.14v-2.16h2.14Zm-2.14,2.66h2.14v8.12h-2.14v-8.12Z"/>
  <path class="uuid-26226392-e24b-4051-9080-7a9bb37eb0d6" d="m204.13,21.6v3.84h3.01v2.14h-3.11c-1.13,0-2.04-.92-2.04-2.03v-8.5h2.14v2.41h3.01v2.14h-3.01Z"/>
  <path class="uuid-ed295b53-68a5-439c-b224-d6084c424e20" d="m210.6,27.59h-2.14v-2.14h2.14v2.14Z"/>
</svg>